PathFileType	4	(X/Y/Z)	E:\Qualisys_Data\Carbon_Farble_Plate\Data\Amateur_Runner\S1\T3\S1T3V11_c3d.trc
DataRate	CameraRate	NumFrames	NumMarkers	Units	OrigDataRate	OrigDataStartFrame	OrigNumFrames
200.000000	200.000000	4	39	mm	200.000000	155	311
Frame#	Time	LSHO			RSHO			LICST			RICST			LASIS			LHEEL			RASIS			LTROC			RTROC			SACR			LTH1			LSK4			LTH2			LTH3			RHM5			LSK2			LTH4			RTH1			LTOE			RTH2			RTH3			RTH4			LLEP			RLEP			LSK1			LSK3			RSK1			LHM5			RSK2			LFT1			RSK3			RSK4			LLME			RLME			RTOE			RHEEL			RFT1			RFT2			LFT2			
		X1	Y1	Z1	X2	Y2	Z2	X3	Y3	Z3	X4	Y4	Z4	X5	Y5	Z5	X6	Y6	Z6	X7	Y7	Z7	X8	Y8	Z8	X9	Y9	Z9	X10	Y10	Z10	X11	Y11	Z11	X12	Y12	Z12	X13	Y13	Z13	X14	Y14	Z14	X15	Y15	Z15	X16	Y16	Z16	X17	Y17	Z17	X18	Y18	Z18	X19	Y19	Z19	X20	Y20	Z20	X21	Y21	Z21	X22	Y22	Z22	X23	Y23	Z23	X24	Y24	Z24	X25	Y25	Z25	X26	Y26	Z26	X27	Y27	Z27	X28	Y28	Z28	X29	Y29	Z29	X30	Y30	Z30	X31	Y31	Z31	X32	Y32	Z32	X33	Y33	Z33	X34	Y34	Z34	X35	Y35	Z35	X36	Y36	Z36	X37	Y37	Z37	X38	Y38	Z38	X39	Y39	Z39	

156	0.775	90.93911743164062	1512.606201171875	-501.6620483398438	-4.596933841705322	1493.840942382812	-190.8798828125	13.94165802001953	1038.37109375	-502.1484375	8.495582580566406	1061.1796875	-204.3023834228516	58.13236618041992	999.4324951171876	-475.4281005859375	-508.5929870605469	392.9767150878906	-412.3118286132812	49.65029144287109	1016.292053222656	-211.6127777099609	-60.98359298706055	922.4833984375	-519.9352416992188	-48.73771667480469	918.6349487304688	-181.9929504394531	-106.9285430908203	1064.612915039062	-350.7631530761719	38.28784942626953	752.0491333007812	-486.3859252929688	-376.7099304199219	441.6419677734375	-437.6647644042969	-39.13740539550781	759.9408569335938	-516.140380859375	21.18434143066406	649.7493286132812	-475.0152893066406	358.0736694335938	122.103385925293	-215.0913238525391	-287.6131591796875	475.6004028320312	-477.8140258789062	-60.0040168762207	662.9161987304688	-497.0388793945312	112.270378112793	823.4174194335938	-193.9189300537109	-453.45458984375	151.6477813720703	-368.0401611328125	38.85137939453125	795.1727294921875	-170.1258087158203	146.9564514160156	727.5519409179688	-197.9946899414062	69.46304321289062	700.6506958007812	-184.3266143798828	-72.9217758178711	509.1285095214844	-470.138916015625	159.548828125	557.4802856445312	-228.4325103759766	-257.121826171875	397.5249938964844	-465.3003540039062	-353.2953796386719	366.5311279296875	-457.8005981445312	193.5883178710938	369.4151916503906	-206.2292327880859	-497.23291015625	199.1309509277344	-436.2882080078125	113.6974716186523	355.9252624511719	-213.4740905761719	-529.1454467773438	384.7799377441406	-377.5423583984375	212.9708251953125	271.7087097167969	-219.0977325439453	135.0455780029297	259.0192260742188	-235.0103454589844	-470.2861633300781	342.4764404296875	-451.5347290039062	211.8865509033203	132.9495849609375	-217.8186798095703	398.01708984375	154.0587921142578	-290.3367309570312	163.0179595947266	69.17362976074219	-257.12939453125	180.4740905761719	46.70986938476562	-289.4013977050781	176.0247344970703	46.10530471801758	-237.7664337158203	-538.3466186523438	375.6849365234375	-428.6274108886719
157	0.78	107.9721832275391	1508.502563476562	-500.3674621582031	12.3183708190918	1489.121459960938	-189.6958465576172	29.61056900024414	1034.130004882812	-501.90087890625	24.125	1057.654907226562	-204.2961578369141	73.58746337890625	996.197021484375	-475.2591552734375	-486.9071960449219	396.09619140625	-410.8099670410156	65.84707641601562	1013.300720214844	-210.9146118164062	-44.71776580810547	917.4104614257812	-519.563720703125	-32.619140625	915.29638671875	-181.8022003173828	-90.95053863525392	1059.8203125	-350.7876892089844	57.29949951171875	748.8663330078125	-487.09326171875	-353.9433288574219	441.7320861816406	-436.6054382324219	-20.51048851013184	755.5953979492188	-516.1224365234375	41.91915893554688	646.0010375976562	-475.5079650878906	367.044677734375	113.431999206543	-216.9280548095703	-264.3117980957031	474.4181213378906	-477.3692932128906	-39.62008666992188	657.9586181640625	-497.2701721191406	129.2480010986328	821.4308471679688	-192.9651489257812	-434.4495239257812	153.7766723632812	-368.1741333007812	55.77246475219727	792.6243896484375	-170.1362609863281	164.5261688232422	725.5682983398438	-198.6378173828125	87.51705932617188	698.5145263671875	-186.3287658691406	-49.6243896484375	504.5399780273438	-471.3762817382812	175.0245819091797	553.3790283203125	-228.748046875	-235.5926361083984	394.6492309570312	-465.3703308105469	-332.2137145996094	366.5803527832031	-457.6040954589844	206.2235565185547	364.1831970214844	-206.2509613037109	-478.0277099609375	201.9988861083984	-435.8608093261719	125.6134033203125	351.5909118652344	-214.3289947509766	-507.0615539550781	387.9104309082031	-376.0457153320312	224.0265960693359	266.1502685546875	-219.3122863769531	145.6162414550781	254.6714630126953	-235.8129730224609	-449.3990783691406	345.0115051269531	-450.4320373535156	220.7323303222656	128.3101654052734	-218.7229461669922	407.4954223632812	144.5718994140625	-292.1676025390625	169.428466796875	72.45311737060547	-256.9016418457031	185.1512908935547	47.84772491455078	-289.6044311523438	181.07421875	49.89007568359375	-237.15234375	-516.6038818359375	379.2436828613281	-427.3557434082031
158	0.785	125.0593719482422	1504.39990234375	-498.9073486328125	29.59591484069824	1484.374389648438	-188.3931121826172	45.37481689453125	1029.69384765625	-501.656494140625	39.64102935791016	1054.031616210938	-203.7319946289062	89.20027160644531	992.3440551757812	-474.9050598144531	-464.6407775878906	398.9188842773438	-409.490966796875	81.4348373413086	1009.756103515625	-210.6499633789062	-28.30476951599121	912.544677734375	-519.0718383789062	-16.89490127563477	911.72607421875	-181.8787231445312	-75.84528350830078	1055.415771484375	-350.6565246582031	76.39735412597656	745.1061401367188	-487.6333923339844	-330.4590454101562	441.9777526855469	-436.1667175292969	-1.99495804309845	750.86572265625	-516.0599365234375	62.96350860595703	642.46337890625	-476.6292724609375	374.7979736328125	102.399658203125	-217.6168975830078	-240.6410064697266	472.5451965332031	-476.8270874023438	-19.13822555541992	652.7345581054688	-497.6494750976562	145.7621307373047	819.0188598632812	-192.169189453125	-414.9310913085938	155.6038818359375	-368.9906921386719	72.77142333984375	789.5794067382812	-170.2242431640625	180.3990020751953	722.9817504882812	-199.97265625	104.7742233276367	695.82958984375	-187.3000640869141	-26.07013130187988	499.3320617675781	-471.7852478027344	190.5962066650391	549.1319580078125	-228.3908538818359	-213.3501434326172	392.7996520996094	-465.2896728515625	-310.6737365722656	366.2504577636719	-457.4198303222656	217.8466491699219	358.5794982910156	-206.4712524414062	-458.2929077148438	205.0164642333984	-435.7328491210938	137.6218414306641	347.3148193359375	-214.4440155029297	-484.4830017089844	391.1037902832031	-374.1788330078125	234.7322998046875	260.583251953125	-219.2026672363281	156.0089111328125	250.332763671875	-236.4471282958984	-428.1355285644531	347.8025512695312	-449.6791687011719	229.3187103271484	123.8229064941406	-219.0641326904297	416.2189331054688	132.2709503173828	-293.6028137207031	175.4398651123047	75.83198547363281	-256.6268005371094	187.7050323486328	51.30080795288086	-290.0120544433594	185.7058868408203	49.64005279541016	-237.1122436523438	-494.6044311523438	382.7044677734375	-425.6076049804688
159	0.79	141.5674133300781	1500.058715820312	-497.912353515625	46.91781616210938	1479.397094726562	-186.8723754882812	60.89687347412109	1025.066650390625	-501.6348266601562	54.75749969482422	1050.75439453125	-202.2338562011719	105.1881637573242	988.114990234375	-474.5336303710938	-441.9805908203125	401.310302734375	-407.9193725585938	98.0898666381836	1006.720764160156	-210.2444152832031	-12.14211845397949	907.1760864257812	-518.5232543945312	-1.00031578540802	907.662841796875	-181.8931732177734	-59.66376113891602	1050.457641601562	-350.3542785644531	95.66090393066406	741.7586669921875	-488.8780517578125	-306.8426818847656	441.5984802246094	-435.2540893554688	16.39656257629395	745.736083984375	-516.188232421875	84.25555419921875	638.3870849609375	-478.3699340820312	381.3851318359375	90.30818176269533	-218.2121124267578	-216.8932037353516	470.9304809570312	-476.1454162597656	1.122124314308167	647.0691528320312	-497.0261535644531	162.4272155761719	815.8612060546875	-191.7070617675781	-394.458984375	157.3952331542969	-369.7873840332031	89.75384521484375	785.4749145507812	-170.1343383789062	197.3902587890625	720.4822387695312	-200.9691925048828	122.3073196411133	692.66259765625	-188.1982727050781	-2.067595243453979	494.3141784667969	-473.151123046875	205.8304901123047	544.4712524414062	-228.0476379394531	-190.9108428955078	390.48583984375	-465.806884765625	-288.5287780761719	365.9883422851562	-457.1857604980469	229.6589050292969	353.201904296875	-206.6453704833984	-437.7088012695312	207.7766418457031	-435.8860168457031	149.2593536376953	343.0321350097656	-214.4027862548828	-461.5719909667969	393.3381652832031	-372.8784484863281	244.6546173095703	254.7115478515625	-219.6121826171875	166.3427276611328	245.8256530761719	-236.6835021972656	-406.3988647460938	350.5390930175781	-448.7520446777344	237.0988616943359	119.3881149291992	-219.1239929199219	423.647705078125	118.0017166137695	-294.2657775878906	181.3214111328125	75.39067840576172	-256.8203430175781	192.3318023681641	52.32537078857422	-288.9744567871094	189.6132507324219	49.76701354980469	-237.3644409179688	-472.0877380371094	385.7149963378906	-424.096923828125
